<svg xmlns="http://www.w3.org/2000/svg" version="1.1" xmlns:xlink="http://www.w3.org/1999/xlink" xmlns:svgjs="http://svgjs.com/svgjs" width="1980" height="1080" preserveAspectRatio="none" viewBox="0 0 1980 1080"><g mask="url(&quot;#SvgjsMask1088&quot;)" fill="none"><rect width="1980" height="1080" x="0" y="0" fill="rgba(92, 65, 148, 1)"></rect><path d="M0,802.823C164.015,811.284,331.532,817.454,479.35,745.884C637.493,669.315,775.654,547.306,853.284,389.682C932.038,229.776,982.428,32.394,911.225,-131.014C841.709,-290.55,615.446,-303.216,496.152,-429.918C384.59,-548.408,396.628,-776.126,245.944,-837.61C97.202,-898.302,-67.554,-790.861,-210.954,-718.443C-335.166,-655.715,-411.431,-537.563,-520.16,-450.721C-659.986,-339.043,-877.798,-302.697,-941.068,-135.305C-1004.498,32.511,-925.858,226.693,-834.581,381.14C-748.135,527.413,-600.235,621.389,-448.585,698.012C-308.697,768.692,-156.522,794.748,0,802.823" fill="#3c2a60"></path><path d="M1980 1643.6309999999999C2090.028 1660.259 2217.9809999999998 1653.402 2300.59 1578.847 2382.286 1505.116 2351.969 1370.8 2394.681 1269.379 2435.548 1172.339 2562.36 1102.615 2544.877 998.783 2527.315 894.483 2394.07 859.71 2314.055 790.54 2247.223 732.7660000000001 2191.352 667.284 2113.375 625.765 2019.57 575.819 1920.96 502.42499999999995 1817.351 526.069 1713.4470000000001 549.78 1663.873 665.072 1592.866 744.547 1520.618 825.4110000000001 1413.1680000000001 888.95 1397.297 996.22 1381.4180000000001 1103.543 1452.771 1202.751 1511.5819999999999 1293.919 1563.913 1375.041 1638.813 1432.776 1716.1689999999999 1490.529 1799.33 1552.615 1877.384 1628.124 1980 1643.6309999999999" fill="#8164bb"></path></g><defs><mask id="SvgjsMask1088"><rect width="1980" height="1080" fill="#ffffff"></rect></mask></defs></svg>